<?xml version="1.0" standalone="no"?>
<!DOCTYPE svg PUBLIC "-//W3C//DTD SVG 20010904//EN"
 "http://www.w3.org/TR/2001/REC-SVG-20010904/DTD/svg10.dtd">
<svg version="1.0" xmlns="http://www.w3.org/2000/svg"
 width="395.000000pt" height="290.000000pt" viewBox="0 0 395.000000 290.000000"
 preserveAspectRatio="xMidYMid meet">
<metadata>
Created by potrace 1.15, written by Peter Selinger 2001-2017
</metadata>
<g transform="translate(0.000000,290.000000) scale(0.100000,-0.100000)"
fill="#000000" stroke="none">
<path d="M1740 2777 c0 -33 40 -103 86 -149 l46 -47 -39 -8 c-21 -4 -85 -8
-143 -7 -101 0 -162 14 -263 59 -16 7 -16 4 3 -28 21 -36 72 -86 107 -105 25
-15 17 -19 -72 -42 -97 -25 -225 -25 -317 -1 -38 9 -68 15 -68 11 0 -11 53
-56 108 -93 l54 -35 -57 -21 c-163 -61 -303 -78 -368 -45 l-32 16 28 -30 c25
-26 85 -58 162 -87 16 -6 10 -11 -35 -27 -116 -41 -222 -60 -302 -56 -46 3
-84 10 -94 19 -16 13 -16 12 -6 -8 13 -23 91 -84 135 -104 15 -7 27 -15 27
-19 0 -15 -159 -59 -256 -71 -90 -11 -103 -11 -134 5 l-35 17 35 -36 c19 -20
62 -50 94 -67 l59 -30 -49 -30 c-121 -76 -204 -90 -299 -52 -28 11 79 -83 134
-118 25 -16 69 -36 98 -45 29 -9 53 -20 53 -24 0 -4 -12 -16 -27 -27 -36 -26
-24 -37 21 -21 20 7 38 11 41 8 2 -3 0 -21 -5 -40 -6 -18 -10 -52 -10 -74 0
-22 -9 -54 -20 -73 -11 -18 -20 -34 -20 -36 0 -5 65 10 79 18 6 4 52 11 102
15 88 7 90 6 84 -14 -4 -11 -10 -65 -14 -120 -4 -55 -13 -111 -20 -124 -12
-22 -12 -23 5 -17 25 10 105 23 182 30 l62 6 0 -63 c0 -63 -17 -145 -39 -185
-6 -12 -10 -22 -9 -22 2 0 21 7 43 15 22 8 76 15 120 15 44 0 97 7 118 15 35
12 38 12 31 -3 -4 -10 -10 -66 -13 -127 -4 -60 -10 -116 -15 -123 -7 -12 -4
-12 14 -2 13 7 68 13 130 14 l107 1 6 -101 c6 -115 31 -200 83 -285 56 -93 60
-92 67 8 7 117 30 186 76 236 l38 41 28 -45 c15 -24 36 -57 46 -74 l19 -30 0
50 c1 110 38 226 96 294 l27 32 28 -50 c15 -28 39 -65 54 -83 l27 -32 -8 50
c-5 27 -8 80 -7 118 1 58 7 81 37 140 19 39 46 84 60 99 l24 28 43 -88 44 -88
6 105 c7 113 18 148 70 220 22 30 34 40 37 30 2 -8 18 -37 36 -65 l31 -50 7
64 c15 139 124 296 243 352 92 44 151 38 219 -21 43 -38 47 -75 15 -126 -23
-37 -20 -41 15 -19 12 8 44 18 70 21 l48 7 -6 -54 c-4 -30 -3 -67 2 -84 l9
-30 8 28 c7 27 61 77 82 77 5 0 29 14 52 31 43 31 91 112 91 155 0 11 16 36
36 55 46 44 74 99 74 144 0 30 -3 35 -24 35 -13 0 -43 -17 -69 -40 -47 -41
-67 -50 -67 -27 0 8 -12 24 -26 38 l-26 24 -15 -22 c-21 -31 -30 -29 -37 10
-4 17 -13 41 -21 51 -15 19 -15 19 -37 -1 -13 -12 -38 -24 -55 -28 -30 -6 -33
-4 -33 17 0 13 -9 42 -20 66 l-19 42 -26 -26 c-29 -29 -45 -24 -45 15 0 15 -6
35 -13 45 -12 16 -14 16 -26 2 -20 -24 -68 -20 -96 9 -32 31 -32 59 0 90 27
28 45 32 45 10 0 -8 13 -29 28 -47 l29 -31 35 26 c44 34 54 34 73 -2 8 -17 25
-37 36 -45 21 -14 25 -13 62 20 23 19 45 33 51 31 5 -2 16 -22 24 -45 7 -23
19 -42 26 -42 7 0 25 14 41 30 16 17 37 30 47 30 23 0 41 -36 34 -66 -6 -21
-3 -24 22 -24 16 0 51 11 77 25 27 13 50 23 52 21 2 -2 -10 -29 -26 -60 l-30
-56 24 0 c61 0 114 39 151 111 14 28 37 55 58 67 20 12 44 34 53 50 10 16 33
42 51 57 36 30 62 73 62 103 0 10 9 27 21 38 30 27 49 68 49 104 0 28 -2 30
-37 30 -50 0 -141 22 -267 64 -56 19 -145 41 -197 49 l-94 14 -62 63 -62 62
-248 64 c-136 35 -270 70 -298 77 -44 12 -56 11 -103 -5 -124 -43 -303 -42
-430 2 -63 23 -146 74 -167 103 -13 18 -15 19 -15 4z m268 -176 c84 -18 199
-14 288 11 86 23 111 25 192 13 69 -10 66 -25 -5 -25 -49 -1 -55 -2 -38 -12
11 -7 81 -15 155 -19 127 -6 190 -18 190 -36 0 -16 -145 -67 -188 -67 -27 1
-38 -2 -30 -7 20 -13 73 -11 173 7 110 19 172 14 197 -16 10 -12 18 -30 18
-40 0 -15 -15 -18 -122 -24 -68 -3 -175 -9 -238 -13 l-114 -6 67 -22 c50 -16
78 -32 108 -63 22 -23 58 -51 81 -63 l42 -21 -123 -59 c-155 -76 -201 -116
-237 -212 -14 -40 -33 -83 -41 -95 -8 -13 -12 -26 -10 -28 8 -8 43 48 63 101
11 30 37 68 63 93 56 55 264 159 335 168 37 5 45 9 31 14 -16 6 -4 15 62 48
120 61 218 86 333 86 131 -1 195 -25 273 -106 55 -58 96 -74 89 -36 -1 9 5 18
13 22 25 9 6 28 -22 21 -27 -6 -53 9 -53 32 0 13 10 14 58 8 31 -4 58 -8 60
-10 7 -7 -27 -71 -46 -89 -12 -10 -24 -31 -27 -47 -4 -15 -25 -49 -48 -73 -23
-25 -56 -62 -73 -82 -26 -31 -38 -37 -81 -41 -65 -7 -120 12 -287 94 -70 34
-146 68 -167 75 -44 13 -50 24 -16 32 12 3 -10 3 -49 2 -58 -3 -82 -9 -134
-37 -64 -34 -196 -151 -269 -238 l-40 -47 15 -43 c8 -23 11 -47 8 -53 -4 -6
-3 -8 3 -5 6 4 13 25 17 47 6 40 35 110 45 110 3 0 14 -20 24 -44 10 -24 27
-52 38 -62 23 -21 23 -17 4 29 -24 57 -19 73 11 37 38 -44 206 -152 383 -245
l152 -80 -6 -39 c-11 -74 -38 -106 -119 -140 l-37 -15 21 28 c24 34 25 60 5
87 -14 19 -14 19 -15 -1 0 -33 -20 -45 -76 -45 -50 0 -53 1 -59 31 -18 80
-110 134 -217 127 -125 -8 -237 -95 -315 -244 l-42 -79 0 80 c0 49 6 99 17
129 15 43 24 53 67 76 58 31 95 80 95 124 l0 31 -17 -33 c-23 -47 -67 -80
-131 -97 -31 -9 -74 -22 -95 -30 -36 -13 -38 -13 -31 3 4 9 10 60 13 113 4 66
11 103 24 122 9 14 17 42 17 61 l0 34 -33 -33 c-26 -26 -45 -35 -83 -39 -27
-3 -74 -9 -104 -14 l-55 -7 3 95 c2 73 8 106 26 142 l22 46 -47 -25 c-28 -14
-71 -26 -106 -29 -32 -3 -74 -6 -93 -8 l-36 -4 1 97 c1 82 4 102 24 134 l22
37 -38 -14 c-78 -27 -111 -28 -188 -5 l-73 21 20 47 c11 25 34 60 50 77 16 18
28 39 26 49 -2 13 -11 9 -46 -20 l-42 -37 -73 15 c-39 9 -90 23 -112 33 l-40
18 90 11 c94 13 205 35 290 58 49 14 50 14 20 22 -16 4 -48 17 -70 29 l-40 21
190 6 c117 3 198 10 210 17 11 6 14 12 8 12 -15 0 -93 68 -93 81 0 4 19 0 43
-10 23 -10 66 -23 95 -30z m-754 -338 c-13 -20 -27 -47 -30 -59 -4 -14 -16
-25 -33 -29 -29 -6 -154 9 -192 24 -28 11 -28 11 91 40 47 11 108 29 135 40
28 11 51 20 52 21 1 0 -9 -17 -23 -37z m215 21 c4 -3 -16 -34 -66 -103 l-17
-23 45 3 c24 1 54 2 67 1 23 -2 22 -3 -9 -42 -47 -58 -104 -74 -190 -53 -35 9
-65 17 -66 17 -1 1 7 33 19 71 15 54 30 79 60 108 38 36 40 37 96 31 31 -4 59
-8 61 -10z m-269 -158 c0 -8 -12 -28 -26 -45 l-26 -31 46 0 c25 0 46 -3 46 -7
0 -5 -15 -18 -34 -30 -21 -14 -42 -41 -57 -73 -27 -61 -48 -68 -134 -51 -33 7
-61 14 -63 16 -2 2 3 16 11 32 8 15 20 52 27 80 21 92 59 120 163 122 34 1 47
-3 47 -13z m461 4 c25 0 26 -3 33 -73 12 -132 -19 -167 -156 -175 -43 -3 -78
-3 -78 -1 0 17 31 161 40 184 17 48 59 77 100 71 19 -3 47 -6 61 -6z m-683
-37 c-2 -5 -16 -34 -31 -65 -23 -51 -30 -58 -56 -58 -50 0 -133 19 -185 44
l-51 23 60 8 c70 8 236 42 243 50 8 8 24 6 20 -2z m459 -126 c-7 -74 -44 -138
-94 -163 -24 -12 -67 -20 -119 -22 l-81 -4 24 73 c30 87 46 114 93 148 31 22
46 26 109 26 l73 0 -5 -58z m-547 -56 c-12 -17 -26 -31 -31 -31 -5 0 -9 -5 -9
-11 0 -7 10 -9 25 -7 31 6 31 4 0 -36 -14 -18 -31 -50 -38 -72 -8 -21 -22 -40
-31 -42 -9 -2 -49 2 -87 8 l-71 12 25 27 c13 14 39 48 57 74 19 26 49 57 68
69 36 22 104 49 111 43 2 -2 -7 -18 -19 -34z m-173 -33 c-34 -35 -67 -72 -73
-83 -10 -18 -15 -18 -61 -8 -28 7 -77 24 -109 39 l-59 26 85 18 c64 14 263 64
277 69 1 1 -26 -27 -60 -61z m1207 1 c16 -82 -2 -170 -39 -195 -14 -9 -64 -22
-113 -28 -48 -7 -93 -16 -100 -19 -11 -8 -10 21 4 138 11 92 66 134 175 135
l67 0 6 -31z m-847 -37 c18 1 33 -1 33 -5 0 -4 0 -11 0 -17 0 -5 -17 -29 -37
-52 l-38 -41 28 7 28 7 -25 -38 c-14 -21 -26 -45 -26 -55 0 -32 -47 -52 -126
-53 -76 0 -94 6 -76 27 5 7 20 46 32 85 12 40 31 85 43 99 28 36 74 55 106 42
14 -5 40 -8 58 -6z m555 -71 c-8 -138 -31 -163 -170 -192 -47 -10 -87 -17 -88
-16 -5 8 18 202 26 217 21 39 97 66 191 66 l46 0 -5 -75z m-1098 -7 c13 -5 8
-15 -27 -53 -24 -26 -52 -68 -62 -95 -18 -48 -19 -48 -57 -43 -41 6 -148 53
-148 66 0 4 23 13 52 20 61 14 170 66 194 92 19 21 24 22 48 13z m804 -76
c-18 -141 -52 -180 -188 -217 -99 -28 -100 -28 -90 12 5 17 13 65 19 106 14
110 47 139 170 151 42 4 81 8 87 9 7 1 8 -18 2 -61z m-766 20 c-7 -7 -12 -20
-12 -30 0 -17 1 -18 25 -2 21 14 41 16 103 11 43 -3 88 -10 100 -14 23 -9 23
-10 -18 -55 -34 -39 -37 -47 -23 -50 26 -6 -40 -45 -89 -53 -55 -10 -198 4
-198 19 0 40 91 186 117 186 4 0 2 -5 -5 -12z m1591 -55 c-13 -159 -11 -152
-55 -174 -33 -17 -136 -34 -229 -39 -11 0 10 139 25 168 31 60 98 88 212 91
l52 1 -5 -47z m-323 -117 c-4 -64 -10 -91 -26 -112 -40 -54 -70 -69 -152 -74
l-77 -5 5 93 c6 90 7 93 43 129 35 35 41 38 119 44 46 3 85 7 88 7 3 1 3 -36
0 -82z m-881 19 l63 0 -5 -48 c-3 -32 -12 -56 -28 -73 -18 -19 -20 -27 -11
-33 27 -17 -121 -61 -204 -61 l-34 0 0 55 c0 69 18 113 59 148 26 22 38 25 64
19 18 -4 61 -7 96 -7z m596 -22 c-3 -10 -10 -55 -15 -100 -15 -139 -44 -167
-184 -175 l-78 -5 4 91 c3 66 9 99 22 118 30 46 82 71 160 79 39 3 77 7 85 8
9 1 11 -5 6 -16z m-857 -113 c-3 -52 -5 -56 -38 -72 -19 -9 -71 -20 -116 -24
l-81 -7 7 60 c12 98 12 98 129 98 l102 0 -3 -55z m540 -69 c-6 -113 -19 -143
-70 -160 -39 -12 -189 -33 -195 -27 -2 2 0 21 5 42 6 22 13 60 17 86 9 65 43
103 108 123 61 18 118 33 131 34 5 1 7 -44 4 -98z m1023 71 c-26 -88 -65 -122
-163 -142 -33 -6 -66 -14 -73 -16 -9 -4 -15 9 -20 43 -8 62 7 103 37 103 13 0
36 7 52 15 36 19 36 19 36 -3 0 -24 29 -64 30 -41 0 22 29 46 70 57 19 6 36
11 37 11 1 1 -2 -12 -6 -27z m-308 -99 c-2 -43 -9 -91 -14 -107 -14 -45 -11
-49 17 -27 26 21 94 44 102 36 10 -9 -50 -86 -81 -105 -17 -11 -49 -22 -72
-24 -123 -15 -136 -15 -129 -5 3 6 7 57 8 113 1 80 5 108 19 130 21 31 88 65
129 66 l26 0 -5 -77z m-1018 -60 c-13 -114 -22 -133 -71 -154 -25 -11 -76 -23
-114 -26 l-70 -6 0 76 c0 70 3 80 28 108 26 29 36 32 127 44 55 7 101 13 103
14 2 0 0 -25 -3 -56z m803 -67 c-4 -129 -15 -145 -125 -177 -40 -12 -76 -26
-79 -31 -8 -13 -24 -9 -18 5 2 7 -2 35 -11 62 -22 75 -19 124 11 168 39 59 77
77 158 77 l68 0 -4 -104z m463 -2 c-38 -43 -60 -83 -81 -153 -16 -49 -18 -52
-25 -30 -24 76 3 229 42 229 10 1 34 9 53 20 l35 18 3 -24 c2 -16 -7 -37 -27
-60z m-756 -26 c1 -35 5 -84 9 -110 12 -67 3 -94 -36 -107 -49 -15 -211 -41
-217 -35 -3 3 -6 45 -6 92 0 102 16 138 77 172 29 16 108 40 168 49 3 1 5 -27
5 -61z m-292 -115 c-10 -163 -36 -193 -174 -201 l-77 -4 5 83 c6 99 17 140 43
164 25 23 101 43 161 44 l47 1 -5 -87z m854 -52 c-46 -51 -81 -113 -102 -181
-26 -86 -27 -88 -35 -55 -9 37 -10 209 -1 249 5 25 14 32 65 48 33 11 69 26
80 34 20 14 21 13 24 -21 3 -30 -3 -43 -31 -74z m-192 -8 c-23 -164 -38 -181
-199 -229 -44 -13 -88 -27 -97 -29 -14 -5 -16 5 -14 81 4 105 18 125 114 154
36 12 86 32 111 45 25 13 55 24 68 25 22 0 23 -3 17 -47z m-375 -251 c-21 -79
-101 -122 -225 -122 l-61 0 7 81 c13 143 29 160 182 185 50 8 94 17 97 20 10
11 11 -126 0 -164z m351 3 c-44 -50 -77 -112 -97 -180 l-17 -60 -14 34 c-8 19
-17 65 -20 102 l-6 68 64 29 c35 16 73 39 83 51 17 19 21 20 29 6 6 -11 0 -25
-22 -50z m-207 -69 c-3 -13 -1 -50 5 -82 l11 -58 -34 -36 c-37 -38 -70 -98
-96 -174 l-16 -49 -24 74 c-30 93 -38 205 -17 245 22 43 51 65 109 85 68 24
69 23 62 -5z"/>
<path d="M2177 2566 c-9 -10 -17 -24 -17 -33 0 -10 -6 -13 -16 -9 -44 17 -70
16 -158 -4 -52 -12 -113 -20 -135 -18 -46 4 -48 2 -25 -23 14 -16 14 -18 -5
-29 -12 -6 -58 -15 -104 -20 -96 -11 -113 -24 -93 -74 8 -22 29 -40 68 -61 31
-16 97 -70 147 -118 95 -92 170 -137 228 -137 17 0 60 7 94 16 93 24 155 22
185 -7 35 -33 30 -3 -7 33 l-30 31 -107 -8 c-214 -17 -221 -15 -346 106 -52
49 -103 88 -138 104 -58 26 -86 50 -74 63 4 3 45 9 90 13 70 5 99 14 177 50
88 41 100 44 179 44 47 0 99 -4 115 -8 17 -5 57 -37 94 -75 l63 -67 -23 45
c-13 25 -48 68 -77 96 -29 28 -56 64 -60 79 -7 26 -9 27 -25 11z"/>
<path d="M2060 2406 c-5 -15 -10 -33 -10 -41 0 -11 -8 -11 -47 1 -25 8 -55 22
-66 32 -20 17 -20 16 -14 -15 6 -30 4 -33 -19 -33 -14 0 -34 5 -45 10 -24 13
-25 -2 -1 -23 10 -10 49 -19 99 -24 80 -9 82 -9 66 10 -17 18 -16 18 12 12 17
-4 48 -16 70 -27 37 -19 39 -19 24 -2 -9 11 -19 24 -23 31 -7 13 89 -27 131
-54 l26 -17 -17 32 c-24 46 -20 50 18 13 27 -26 54 -38 120 -56 47 -12 86 -20
86 -18 0 2 -15 16 -32 32 -18 16 -30 32 -27 36 12 11 77 -23 94 -49 17 -25 16
-39 0 -78 -6 -15 -2 -18 22 -18 16 0 34 5 41 12 31 31 0 103 -57 132 -24 13
-131 37 -131 30 0 -1 4 -14 9 -27 10 -25 9 -25 -22 -16 -45 13 -79 40 -102 82
-11 20 -23 37 -27 37 -3 0 -16 -16 -28 -35 -19 -31 -24 -34 -43 -24 -12 6 -39
27 -59 47 l-37 35 -11 -27z"/>
<path d="M1874 2275 c-7 -18 4 -37 17 -29 5 3 21 -1 34 -10 20 -13 25 -13 35
-1 10 13 16 13 40 0 16 -8 39 -28 52 -45 l24 -31 64 17 c75 19 143 13 204 -18
l41 -21 -20 23 c-46 52 -158 75 -234 49 -30 -11 -35 -9 -64 19 -40 39 -80 54
-110 43 -15 -6 -29 -4 -42 5 -24 18 -34 18 -41 -1z"/>
<path d="M2998 2186 c-32 -7 -60 -14 -62 -17 -2 -2 29 -5 69 -6 106 -3 174
-32 249 -105 71 -70 108 -88 173 -87 l48 2 -40 6 c-57 10 -76 23 -141 96 -96
109 -174 139 -296 111z"/>
<path d="M2555 1731 c4 -13 8 -30 9 -39 2 -9 70 -51 158 -98 86 -45 176 -96
201 -113 44 -30 107 -42 107 -21 0 6 -9 10 -21 10 -25 0 -50 13 -114 60 -27
20 -104 65 -170 99 -66 34 -133 77 -149 94 -25 29 -27 30 -21 8z"/>
</g>
</svg>
