<svg id="Layer_1" data-name="Layer 1" xmlns="http://www.w3.org/2000/svg" viewBox="0 0 281.08 142.73"><defs><style>.cls-1{fill:#00467f;}.cls-2{font-size:42.91px;fill:#636466;font-family:EuphemiaUCAS-Bold, Euphemia UCAS;font-weight:700;}</style></defs><title>esco merchandise</title><path class="cls-1" d="M105.84,100.63a31.76,31.76,0,0,0-4.8,5.42,30,30,0,0,0-3.29,6.26q-8.33,3.18-14,4.69a37.22,37.22,0,0,1-9.14,1.5,14.7,14.7,0,0,1-7.85-1.95,13.4,13.4,0,0,1-5-6l-1.81,2H57.76q-1,0-1.35-2.1a85.31,85.31,0,0,1-.34-10.11,131.18,131.18,0,0,1,3.31-29.09,132.81,132.81,0,0,1,9.5-27.67,59.26,59.26,0,0,1,13.87-4.34,86.29,86.29,0,0,1,16.44-1.5,104.4,104.4,0,0,1,11.81.59c3.41.4,5.23.82,5.48,1.26A5.16,5.16,0,0,1,117,41.4a18.7,18.7,0,0,1,.22,3,4.07,4.07,0,0,1-.12,1,7.71,7.71,0,0,1-.37,1.1l-3.81,8.33q-7.9.78-14.11,1.78T88,58.8Q84.89,63,82.57,66.43T78.37,73c2.55-.11,4.54-.19,6-.2s2.83,0,4.17,0a62.16,62.16,0,0,1,15.89,1.83q6.93,1.82,6.93,3.24a5,5,0,0,1-.12,1l-2.07,6.67a133,133,0,0,0-20.93,5.59,86.55,86.55,0,0,0-16.79,8.06,7.19,7.19,0,0,0,3.48,4.91,15.09,15.09,0,0,0,7.68,1.65,38.86,38.86,0,0,0,10.65-1.65,63.14,63.14,0,0,0,11.6-4.67l1,1.24Z" transform="translate(-52.59 -35.08)"/><path class="cls-1" d="M121.22,113.89l.94-1.72a19.09,19.09,0,0,0,2.22.56,11.25,11.25,0,0,0,2.1.21q4.57,0,11.39-2.84a105.44,105.44,0,0,0,15.54-8.35q-20.8-3.91-28.09-9.07T118,77.72a26.78,26.78,0,0,1,5.07-15.3q5.06-7.41,14.82-13.88A69.88,69.88,0,0,1,153,40.77q7.91-2.91,13-2.91c1.38,0,2.32,1,2.81,3a15.84,15.84,0,0,0,.75,2.49A12.68,12.68,0,0,0,172.93,48a14.57,14.57,0,0,0,5.32,2.87l-3.48,20-2.55.48L170,61a63.89,63.89,0,0,0-22.09,8.88q-9.16,6.09-9.15,10.61,0,3.09,6.5,5.76c.33.12.58.22.75.3q5.19,2.08,12.25,4.28a72.16,72.16,0,0,1,8.63,3q2.05,1.07,4.06,5.2a16.36,16.36,0,0,1,2,6.61,4.88,4.88,0,0,1-.91,2.85,10.79,10.79,0,0,1-2.84,2.61q-2.95,2-11.64,5.34l-1.31.48q-6.76,2.54-11.26,3.82A27.74,27.74,0,0,1,138,122a18.69,18.69,0,0,1-8.1-2.14,38.26,38.26,0,0,1-8.73-6" transform="translate(-52.59 -35.08)"/><path class="cls-1" d="M192.86,55.42a276.29,276.29,0,0,1,33.22-15.25q13.93-5.08,22.57-5.08c.88,0,1.48.54,1.81,1.63A25.21,25.21,0,0,1,251,43a17.41,17.41,0,0,1-.82,4.61q-.81,2.83-3.32,9.13Q225,61.11,210,69.5T192.61,86.3a34.47,34.47,0,0,0,8.39,2,120.13,120.13,0,0,0,13.65.6,175.69,175.69,0,0,0,32.62-3.07,29.07,29.07,0,0,1,3-.48.92.92,0,0,1,.41.06.49.49,0,0,1,.16.3V86l-1.06,6.75A18.45,18.45,0,0,1,245,96.67a38.34,38.34,0,0,1-7.26,3.15l-.25,8.8a61.46,61.46,0,0,1-15,4.37,114.46,114.46,0,0,1-19.09,1.46,92.78,92.78,0,0,1-9.55-.41,13.78,13.78,0,0,1-5-1.13q-3.19-2.26-6.19-11.42a61.37,61.37,0,0,1-3-19.26A31.52,31.52,0,0,1,180,77a6.91,6.91,0,0,1,1.16-3,57.42,57.42,0,0,1,11-10.32,75.7,75.7,0,0,1,14.43-7.89l-7.48-.21-6.29-.15" transform="translate(-52.59 -35.08)"/><path class="cls-1" d="M265.84,44.3a13.72,13.72,0,0,0,1.44-.12c2.39-.24,4.12-.4,5.21-.48l3-5.58q26.46.59,35.79,6t9.32,19.45A59.64,59.64,0,0,1,316,85.75a81.83,81.83,0,0,1-13,21.78,34.26,34.26,0,0,1-9,8.21,18.3,18.3,0,0,1-9.41,2.75,19,19,0,0,1-6.89-1.66,43.51,43.51,0,0,1-8.25-4.56q-7.07-4.92-10.27-9.87a19.83,19.83,0,0,1-3.19-11q0-5,2.77-13.36a163.71,163.71,0,0,1,8-19l-4.36-.59c-1.19-.16-2.29-.28-3.29-.36l6.9-13.77Zm18.49,17.87q-4.32,12.5-6.44,21.45A65.39,65.39,0,0,0,275.76,98c0,1,0,2.13.12,3.32s.13,1.81.13,1.9v.71a37.28,37.28,0,0,0,10.66-4.41,58.63,58.63,0,0,0,10.6-8.45,50.76,50.76,0,0,0,7.29-8.74q2.85-4.41,2.85-6.67,0-4.27-6.2-7.94t-16.88-5.57" transform="translate(-52.59 -35.08)"/><path class="cls-1" d="M323.91,111.33a3.36,3.36,0,1,1-3.52,3.35,3.4,3.4,0,0,1,3.52-3.35Zm0,.52a2.84,2.84,0,1,0,2.84,2.84,2.83,2.83,0,0,0-2.84-2.84Zm-.66,4.78h-.63V112.9a6.82,6.82,0,0,1,1.11-.09,2.19,2.19,0,0,1,1.23.28.87.87,0,0,1,.36.77.94.94,0,0,1-.77.91v0c.34.06.58.36.66.91a2.78,2.78,0,0,0,.25.92h-.66a2.57,2.57,0,0,1-.27-1,.73.73,0,0,0-.85-.65h-.44v1.61Zm0-2.07h.46c.52,0,1-.17,1-.64s-.25-.65-1-.65a3.22,3.22,0,0,0-.46,0v1.26Z" transform="translate(-52.59 -35.08)"/><text class="cls-2" transform="matrix(0.99, 0, -0.2, 0.98, 3.06, 128.02)">Merchandise</text></svg>